<svg width="12" height="14" fill="none" xmlns="http://www.w3.org/2000/svg"><path d="M11.037 7.547a.123.123 0 00-.013-.01l-.096-.068-1.159-.822-1.608-1.143-1.269-.9-1.617-1.15-1.286-.913-1.063-.754-1.37-.974L.41 0l.052 2.069.055 2.213.05 2.04.051 1.997.054 2.153.048 1.935.016.632v.043a.8.8 0 00.102.38c.14.248.418.408.799.483.904.182 2.394-.105 4.035-.794.47-.197.951-.426 1.435-.686 2.89-1.556 4.772-3.633 4.2-4.637a.817.817 0 00-.27-.28z" fill="#FF6A51"/><path d="M5.275 3.454C4.76 4.557 3.535 6.264.619 8.32L.57 6.326a15.602 15.602 0 003.42-3.782l1.286.91zM2.926 1.786c-.518.716-1.28 1.558-2.41 2.496L.46 2.069c.387-.4.751-.82 1.093-1.256l1.373.973zM8.16 5.503c-.302.622-.925 1.596-2.242 2.883-1.094 1.071-2.667 2.36-4.925 3.844l-.27.177-.049-1.935c1.313-.892 4.066-2.951 6.22-5.87l1.265.901zm2.767 1.966s0 .008-.004.012c-.016.047-.035.1-.059.16-.306.763-1.391 2.638-5.19 5.511-1.642.69-3.131.977-4.036.795A33.115 33.115 0 007.09 9.67a26.845 26.845 0 002.136-2.33c.184-.227.366-.459.542-.695l1.159.823z" fill="#FFB0A7"/></svg>