<svg width="36" height="36" fill="none" xmlns="http://www.w3.org/2000/svg"><path d="M31.5 26V3c0-.5-.5-1-1-1h-22c-2.813 0-5 2.25-5 5v22c0 2.813 2.188 5 5 5h22c.5 0 1-.438 1-1v-1c0-.438-.375-.875-.813-.938-.312-.812-.312-3.25 0-4.062.438-.063.813-.5.813-1zm-3.375 5H8.5c-1.125 0-2-.875-2-2 0-1.063.875-2 2-2h19.625c-.188 1.125-.188 2.938 0 4zm.375-7h-20c-.75 0-1.438.188-2 .438V7c0-1.063.875-2 2-2h20v19zm-9.688-5.313L20.5 22l1.625-3.313L25.5 17l-3.375-1.625L20.5 12l-1.688 3.375L15.5 17l3.313 1.688zM13.5 14.5l1.125-2.313L17 11l-2.375-1.125L13.5 7.5l-1.188 2.375L10 11l2.313 1.188L13.5 14.5z" fill="#E7EAF3"/></svg>