<svg width="17" height="20" fill="none" xmlns="http://www.w3.org/2000/svg"><g clip-path="url(#clip0_728_2030)"><path d="M2.78-.007C1.668-.007.748.913.748 2.061v15.861c0 1.132.906 2.068 2.034 2.068h11.933c1.114 0 2.034-.92 2.034-2.068V4.868s.03-.378-.134-.755c-.148-.347-.4-.588-.4-.588L13.26.566s-.253-.241-.624-.407c-.445-.196-.89-.166-.89-.166H2.78z" fill="#FF2116"/><path d="M2.78.672h8.951s.356 0 .623.121c.253.106.43.272.43.272l2.955 2.943s.178.196.267.392c.074.166.074.453.074.453v13.085c0 .77-.609 1.388-1.366 1.388H2.781a1.374 1.374 0 01-1.366-1.388V2.06c0-.77.609-1.389 1.366-1.389z" fill="#F5F5F5"/><path d="M4.74 11.915c-.46-.467.044-1.101 1.38-1.796l.846-.422.327-.74c.178-.407.46-1.071.608-1.464l.267-.724-.193-.543c-.237-.664-.311-1.66-.163-2.023.193-.483.846-.437 1.099.09.207.408.178 1.148-.06 2.084l-.193.77.178.301c.09.166.371.559.609.86l.46.574.564-.076c1.811-.241 2.42.166 2.42.755 0 .74-1.425.8-2.613-.045-.267-.196-.445-.378-.445-.378s-.742.151-1.113.257c-.386.106-.564.166-1.128.362 0 0-.193.287-.327.498-.475.785-1.024 1.419-1.425 1.66-.4.212-.86.227-1.098 0zm.727-.271c.252-.166.787-.785 1.143-1.374l.148-.241-.668.347c-1.024.528-1.499 1.026-1.261 1.328.133.166.311.151.638-.06zm6.694-1.902c.253-.181.223-.543-.074-.694-.223-.12-.4-.136-.98-.136-.356.03-.92.09-1.024.12 0 0 .312.227.445.303.179.105.639.301.965.407.327.106.52.106.668 0zM9.46 8.595a6.937 6.937 0 01-.58-.754 3.73 3.73 0 01-.326-.483s-.163.513-.282.83l-.4 1.01-.12.227s.624-.211.936-.287c.341-.09 1.01-.226 1.01-.226l-.238-.317zm-.861-3.531c.044-.332.06-.664-.045-.83-.297-.317-.638-.06-.579.709.015.256.09.71.164.98l.148.499.104-.377c.06-.197.149-.65.208-.981z" fill="#FF2116"/><path d="M5.526 14.074h.743c.237 0 .43.03.578.075.149.046.268.151.371.302a.98.98 0 01.149.559c0 .196-.045.377-.119.513a.735.735 0 01-.326.317c-.134.06-.357.09-.639.09h-.252v1.193h-.505v-3.049zm.505.392v1.072h.252c.223 0 .371-.045.46-.12.09-.091.134-.227.134-.408a.633.633 0 00-.089-.347.449.449 0 00-.178-.166 1.434 1.434 0 00-.312-.03h-.267zm1.737-.392h.682c.327 0 .594.06.787.181.193.12.341.287.445.528.104.227.149.498.149.77 0 .302-.045.573-.134.8a1.2 1.2 0 01-.415.558c-.179.151-.446.212-.802.212h-.712v-3.049zm.49.408v2.248h.207c.297 0 .505-.105.638-.302.134-.21.193-.483.193-.815 0-.754-.282-1.131-.83-1.131h-.209zm2.048-.408h1.677v.408H10.81v.92h.935v.408h-.935v1.328h-.504v-3.064z" fill="#2C2C2C"/></g><defs><clipPath id="clip0_728_2030"><rect x=".75" width="16" height="20" rx=".838" fill="#fff"/></clipPath></defs></svg>