<svg width="18" height="20" fill="none" xmlns="http://www.w3.org/2000/svg"><g clip-path="url(#clip0_728_285)"><path d="M3.613 0A1.112 1.112 0 002.5 1.112V18.89a1.112 1.112 0 001.113 1.112H16.39a1.112 1.112 0 001.113-1.112V5.145L12.147.001 3.613 0z" fill="#4285F4"/><path d="M5.6 14.971h8.8v-.914H5.6v.914zm0 1.829h6.6v-.915H5.6v.915zm0-6.4v.914h8.8V10.4H5.6zm0 2.743h8.8v-.915H5.6v.915z" fill="#fff"/><path d="M17.501 5.145h-4.244a1.112 1.112 0 01-1.112-1.112V.001L17.5 5.145z" fill="#A1C2FA"/><path d="M11.926 12.372a1.282 1.282 0 01-1.282 1.282H1.283A1.283 1.283 0 010 12.372V8.455a1.282 1.282 0 011.282-1.28h9.36a1.282 1.282 0 011.284 1.28v3.917z" fill="#2260C7"/><path d="M1.271 9.244h.689c.155-.003.31.014.46.05.13.033.249.097.348.186.272.232.408.585.407 1.06.001.144-.012.288-.04.429a1.286 1.286 0 01-.126.347 1.093 1.093 0 01-.22.278.911.911 0 01-.229.152 1.047 1.047 0 01-.267.08 2.048 2.048 0 01-.323.023h-.688a.438.438 0 01-.217-.043.203.203 0 01-.095-.124.76.76 0 01-.023-.208V9.568a.278.278 0 01.324-.324zm.205.417v1.77h.4c.088 0 .157 0 .209-.008a.63.63 0 00.154-.035.428.428 0 00.139-.08c.177-.15.265-.407.265-.772 0-.258-.04-.45-.117-.578a.516.516 0 00-.287-.245 1.42 1.42 0 00-.412-.052h-.351zM4.787 9.2c.242-.007.482.05.695.164.191.107.344.27.44.468.103.223.154.466.149.712.002.186-.025.371-.082.549a1.205 1.205 0 01-.245.429 1.09 1.09 0 01-.402.278c-.174.066-.36.099-.546.096a1.433 1.433 0 01-.547-.099 1.09 1.09 0 01-.648-.71 1.73 1.73 0 01-.083-.546 1.68 1.68 0 01.086-.551c.052-.159.137-.304.25-.427.11-.119.247-.21.398-.27.17-.065.352-.097.535-.094zm.75 1.34a1.23 1.23 0 00-.092-.496.695.695 0 00-.264-.317.723.723 0 00-.394-.108.715.715 0 00-.293.06.633.633 0 00-.23.173.81.81 0 00-.154.29 1.29 1.29 0 00-.056.398 1.32 1.32 0 00.056.402.84.84 0 00.158.298.703.703 0 001.168-.18c.072-.164.106-.341.1-.52zm3.207.487a.704.704 0 01-.06.27.974.974 0 01-.53.51 1.196 1.196 0 01-.477.088 1.645 1.645 0 01-.374-.04 1.06 1.06 0 01-.308-.121 1.042 1.042 0 01-.253-.217 1.44 1.44 0 01-.286-.603 1.77 1.77 0 01-.035-.367 1.623 1.623 0 01.09-.563 1.17 1.17 0 01.663-.696c.155-.061.32-.093.487-.092.195-.003.388.04.563.127.15.071.28.178.379.312.079.1.125.223.132.35a.23.23 0 01-.064.16.208.208 0 01-.155.07.209.209 0 01-.152-.048.67.67 0 01-.113-.165.794.794 0 00-.243-.29.594.594 0 00-.347-.096.626.626 0 00-.519.247c-.129.165-.193.399-.192.703a1.3 1.3 0 00.084.505.641.641 0 00.242.302c.11.068.237.102.367.099a.646.646 0 00.385-.113c.11-.084.193-.2.237-.331a.575.575 0 01.083-.168.19.19 0 01.16-.065.225.225 0 01.162.065.217.217 0 01.074.167zm.379.318l.583-.851-.49-.76a1.52 1.52 0 01-.104-.188.382.382 0 01-.035-.153.179.179 0 01.07-.134.236.236 0 01.162-.059.224.224 0 01.171.065c.064.075.12.156.17.24l.391.633.417-.632.088-.14a.75.75 0 01.07-.094.24.24 0 01.076-.055.233.233 0 01.096-.019.224.224 0 01.211.125c.011.024.017.05.017.076 0 .08-.046.187-.139.323l-.513.765.556.851c.04.06.076.122.107.187.022.043.034.09.035.139a.216.216 0 01-.115.195.255.255 0 01-.125.03.24.24 0 01-.127-.031.278.278 0 01-.083-.078c-.022-.03-.06-.09-.12-.179l-.458-.722-.486.744-.081.124a.523.523 0 01-.059.07.256.256 0 01-.188.072.208.208 0 01-.222-.229.618.618 0 01.126-.315z" fill="#fff"/></g><defs><clipPath id="clip0_728_285"><path fill="#fff" d="M0 0h17.501v20H0z"/></clipPath></defs></svg>