<svg width="91" height="36" fill="none" xmlns="http://www.w3.org/2000/svg"><g clip-path="url(#clip0_697_16727)"><path d="M39.667 9.141h-.035L36.784.154H33.89l4.151 12.777h3.165L45.454.155h-2.9l-2.887 8.987zm22.015-.207h-.035L58.795.56 58.66.163h-3.967v1.869a3.143 3.143 0 012.644 1.93v.027c.036.09.067.18.093.273l3.032 8.67h2.169l3.129-9.053h.035v9.053h2.645V.15h-3.967l-2.79 8.784zm8.26-8.78v2.358h3.83v10.42h2.807V2.511h3.84V.154H69.941z" fill="#EDC677"/><path d="M54.7 2.86h-.171v1.28h.172a3.133 3.133 0 012.9 3.124V5.985a3.133 3.133 0 00-2.9-3.125z" fill="#EDC677"/><path d="M54.7 5.064h-5.346V.154h-2.816v12.782h2.816V7.418h4.377a.798.798 0 01.798.798v4.716h2.807V7.779a2.803 2.803 0 00-2.635-2.715z" fill="#EDC677"/><path d="M53.93 19.318h-3.341v15.236h10.745v-2.816H53.93v-12.42zm-5.607 7.687a9.585 9.585 0 00-.502-3.174 7.492 7.492 0 00-1.464-2.556 6.692 6.692 0 00-2.344-1.701 8.29 8.29 0 00-6.299 0 6.74 6.74 0 00-2.358 1.7 7.43 7.43 0 00-1.463 2.557 9.695 9.695 0 00-.502 3.174 9.296 9.296 0 00.502 3.085 7.491 7.491 0 001.463 2.516 6.893 6.893 0 002.35 1.693 7.595 7.595 0 003.15.639 8.436 8.436 0 001.997-.23 6.223 6.223 0 001.68-.652l2.15 1.962 1.547-1.636-1.89-1.732a7.72 7.72 0 001.48-2.56 9.075 9.075 0 00.503-3.085zm-3.588 2.049a4.849 4.849 0 01-.674 1.446l-1.723-1.583-1.57 1.666 1.433 1.3a.576.576 0 01-.247.128 2.151 2.151 0 01-.33.058l-.38.022h-.387a3.852 3.852 0 01-1.913-.441 3.755 3.755 0 01-1.26-1.15 4.911 4.911 0 01-.715-1.631 7.814 7.814 0 01-.246-1.864c0-.655.075-1.307.224-1.944.14-.6.39-1.17.736-1.68.332-.484.77-.885 1.283-1.172a4.35 4.35 0 013.817 0c.51.287.948.688 1.278 1.173a5.02 5.02 0 01.718 1.67c.146.638.22 1.29.22 1.944a7.052 7.052 0 01-.264 2.058zm44.67-1.362a3.637 3.637 0 00-2.085-1.424 3.79 3.79 0 001.525-1.26c.367-.57.551-1.24.529-1.917a4.155 4.155 0 00-.348-1.79 2.89 2.89 0 00-.987-1.159 4.199 4.199 0 00-1.53-.63 9.362 9.362 0 00-1.983-.19H77.38v15.232h7.36a7.635 7.635 0 001.997-.255 5.288 5.288 0 001.715-.794 4.085 4.085 0 001.199-1.375 4.632 4.632 0 00-.247-4.438zm-8.678-5.77h3.124c.288 0 .576.023.86.067.258.04.507.127.732.26.213.132.39.317.51.538.138.273.203.576.19.881.009.283-.044.564-.154.824-.1.22-.251.414-.44.564a1.78 1.78 0 01-.649.322c-.266.07-.54.106-.815.106h-3.372l.014-3.561zm5.835 9.005a1.59 1.59 0 01-.538.608 2.202 2.202 0 01-.784.318c-.31.067-.626.1-.943.097h-3.57v-4.183h3.631c.328 0 .653.04.97.123.278.07.538.2.763.38.216.182.384.415.489.678.126.318.186.659.176 1a2.27 2.27 0 01-.194.98zM75.614 19.318H71.96l-3.085 4.866-2.98-4.866h-3.864l4.892 7.255-5.316 7.981h3.76l3.385-5.275 3.31 5.275h3.98l-5.298-7.964 4.87-7.272zM0 34.316h24.267V0H.027L0 34.316zM2.803 2.803H21.47v28.715H2.803V2.803z" fill="#0AA075"/><path d="M17.63 9.542a.307.307 0 00-.44-.123l-.706.392-.106-.084a2.747 2.747 0 00-.793-.44v-.794a.322.322 0 00-.317-.322h-1.279a.326.326 0 00-.326.318v.806c-.333.11-.643.282-.912.507l-.688-.427a.322.322 0 00-.238-.031l-.097.04-.1.1-.653 1.09a.33.33 0 00-.044.158v.088a.318.318 0 00.15.194l.687.406c-.03.145-.049.292-.053.44v.067a2.4 2.4 0 00.049.533l-.697.392a.312.312 0 00-.154.19v.066a.335.335 0 00.04.185l.626 1.12a.308.308 0 00.19.15.33.33 0 00.242-.027l.705-.393.106.084c.239.188.507.337.793.441v.802a.326.326 0 00.317.326h1.274a.322.322 0 00.326-.313v-.82c.333-.112.642-.286.912-.51l.692.41a.309.309 0 00.243.034l.097-.044.101-.101.652-1.102a.33.33 0 00.044-.159v-.088a.326.326 0 00-.15-.198l-.713-.366c.03-.145.048-.292.052-.44v-.08a2.68 2.68 0 00-.052-.529l.696-.388a.34.34 0 00.154-.194v-.066a.322.322 0 00-.04-.18l-.59-1.12zm-3.045 3.716a1.283 1.283 0 01-1.266-1.239v-.066a1.279 1.279 0 012.557-.035v.061a1.281 1.281 0 01-1.287 1.279h-.005zM11.878 23.57h-4.54a.696.696 0 00-.652.693v1.542a.71.71 0 00.705.71h4.434a.71.71 0 00.705-.71v-1.542a.697.697 0 00-.652-.692zm-1.463-9.528a.141.141 0 00-.19-.057.136.136 0 00-.075.137v4.015a1.212 1.212 0 01.305 1.89 1.19 1.19 0 11-1.39-1.886v-4.02a.15.15 0 00-.14-.15.15.15 0 00-.128.071l-3.085 4.752a.494.494 0 000 .515l1.265 3.209a.498.498 0 00.44.269h4.408a.502.502 0 00.44-.27l1.266-3.208a.494.494 0 000-.515l-3.116-4.752z" fill="#0AA075"/></g><defs><clipPath id="clip0_697_16727"><path fill="#fff" d="M0 0h90.101v36H0z"/></clipPath></defs></svg>